# xmcd
#
# Track frame offsets:
#	150
#	22025
#	42878
#	65053
#	91138
#	112995
#	135429
#	155938
#	188523
#	206915
#
# Disc length: 3094 seconds
#
# Revision: 0
# Processed by: cddbd v1.5.2PL0 Copyright (c) Steve Scherf et al.
# Submitted via: EasyCDDAExtractor 12.0.4.1
#
DISCID=880c140a
DTITLE=Terry Evans - Anthology
DYEAR=2010
DGENRE=Blues
TTITLE0=Let Me Go Back To The Country
TTITLE1=Natcha Bone Lover
TTITLE2=Honey Buy
TTITLE3=Let Love Begin
TTITLE4=Credit Card Blues
TTITLE5=Come To The River
TTITLE6=Shakespere Didn't Quote That
TTITLE7=What About Me
TTITLE8=I Fancy You
TTITLE9=I Wanna Be Close To You God
EXTD=
EXTT0=
EXTT1=
EXTT2=
EXTT3=
EXTT4=
EXTT5=
EXTT6=
EXTT7=
EXTT8=
EXTT9=
PLAYORDER=
